<svg width="38" height="31" viewBox="0 0 38 31" fill="none" xmlns="http://www.w3.org/2000/svg">
<path d="M11.9528 31C26.2914 31 34.1321 19.0779 34.1321 8.73186C34.1321 8.38868 34.1194 8.05822 34.1068 7.71505C35.6268 6.60927 36.9441 5.23657 37.9954 3.66052C36.6021 4.28331 35.0947 4.70275 33.5241 4.8934C35.1328 3.92743 36.3741 2.3895 36.9568 0.559246C35.4241 1.47437 33.7521 2.10988 32.0041 2.45305C30.5854 0.95326 28.5588 0 26.3168 0C22.0101 0 18.5141 3.50799 18.5141 7.82944C18.5141 8.43952 18.5774 9.0369 18.7168 9.60886C12.2441 9.27839 6.49342 6.16441 2.65542 1.43624C1.95875 2.631 1.59142 3.97827 1.59142 5.36367C1.59142 8.08364 2.97209 10.4731 5.06209 11.884C3.83342 11.8458 2.61742 11.5027 1.54075 10.9053C1.54075 10.9434 1.54075 10.9688 1.54075 11.007C1.54075 14.7946 4.22609 17.9594 7.79809 18.6839C7.12675 18.8618 6.44275 18.9635 5.74609 18.9635C5.23942 18.9635 4.75809 18.9127 4.27675 18.8237C5.26475 21.9377 8.15275 24.2001 11.5601 24.2636C8.88742 26.3608 5.53075 27.6191 1.88275 27.6191C1.26209 27.6191 0.641419 27.581 0.020752 27.5047C3.45342 29.7036 7.55742 31 11.9528 31Z" fill="white"/>
</svg>
